<svg width="24" height="24" viewBox="0 0 24 24" fill="none" xmlns="http://www.w3.org/2000/svg">
<g id="Outline/Arrow-Up-2">
<g id="Arrow-Up-2">
<path d="M15.0002 13.99C15.1502 14.14 15.3402 14.21 15.5302 14.21C15.7202 14.21 15.9102 14.14 16.0602 13.99C16.3502 13.7 16.3502 13.22 16.0602 12.93L12.5302 9.39999C12.2402 9.10999 11.7602 9.10999 11.4702 9.39999L7.94016 12.93C7.65016 13.22 7.65016 13.7 7.94016 13.99C8.23016 14.28 8.71016 14.28 9.00016 13.99L12.0002 10.99L15.0002 13.99Z" fill="white"/>
<path fill-rule="evenodd" clip-rule="evenodd" d="M9 22.75H15C20.43 22.75 22.75 20.43 22.75 15V9C22.75 3.57 20.43 1.25 15 1.25H9C3.57 1.25 1.25 3.57 1.25 9V15C1.25 20.43 3.57 22.75 9 22.75ZM2.75 9C2.75 4.39 4.39 2.75 9 2.75H15C19.61 2.75 21.25 4.39 21.25 9V15C21.25 19.61 19.61 21.25 15 21.25H9C4.39 21.25 2.75 19.61 2.75 15V9Z" fill="white"/>
</g>
</g>
</svg>
