<svg width="24" height="24" viewBox="0 0 24 24" fill="none" xmlns="http://www.w3.org/2000/svg">
<g id="Outline/Eye-Slash">
<g id="Eye-Slash">
<path fill-rule="evenodd" clip-rule="evenodd" d="M15.0475 10.0124L10.0019 15.058L9.99994 15.06L2.52994 22.53C2.37994 22.68 2.18994 22.75 1.99994 22.75C1.80994 22.75 1.61994 22.68 1.46994 22.53C1.17994 22.24 1.17994 21.76 1.46994 21.47L4.84314 18.0968C3.87991 17.231 3.01112 16.1911 2.25984 15C1.19984 13.35 1.19984 10.66 2.25984 9.00001C4.69984 5.18001 8.24984 2.98001 11.9998 2.98001C14.0891 2.98001 16.1514 3.66545 17.981 4.95923L21.4702 1.47C21.7602 1.18 22.2402 1.18 22.5302 1.47C22.8202 1.76 22.8202 2.24 22.5302 2.53L15.0602 10C15.056 10.0042 15.0518 10.0084 15.0475 10.0124ZM14.4847 8.45549C13.7598 7.94454 12.8982 7.67001 11.9999 7.67001C9.60992 7.67001 7.66992 9.61001 7.66992 12C7.66992 12.8982 7.94441 13.7597 8.45528 14.4847L5.90442 17.0355C5.02377 16.2443 4.22341 15.2876 3.51984 14.19C2.76984 13.02 2.76984 10.98 3.51984 9.81001C5.67984 6.42001 8.76984 4.48001 11.9998 4.48001C13.6946 4.48001 15.3812 5.0139 16.9032 6.03702L14.4847 8.45549ZM9.16992 12C9.16992 10.44 10.4399 9.17001 11.9999 9.17001C12.4999 9.17001 12.9799 9.30001 13.3999 9.54001L9.53992 13.4C9.29992 12.98 9.16992 12.5 9.16992 12Z" fill="white"/>
<path d="M12.0001 21.02C10.6701 21.02 9.37006 20.75 8.12006 20.22C7.74006 20.06 7.56006 19.62 7.72006 19.24C7.88006 18.86 8.32006 18.68 8.70006 18.84C9.76006 19.29 10.8701 19.52 11.9901 19.52C15.2201 19.52 18.3101 17.58 20.4701 14.19C21.2201 13.02 21.2201 10.98 20.4701 9.81C20.1601 9.32 19.8201 8.85 19.4601 8.41C19.2001 8.09 19.2501 7.62 19.5701 7.35C19.8901 7.09 20.3601 7.13 20.6301 7.46C21.0201 7.94 21.4001 8.46 21.7401 9C22.8001 10.65 22.8001 13.34 21.7401 15C19.3001 18.82 15.7501 21.02 12.0001 21.02Z" fill="white"/>
<path d="M11.9501 15.66C12.0201 16.02 12.3401 16.27 12.6901 16.27C12.7071 16.27 12.723 16.2688 12.7385 16.2677C12.7685 16.2655 12.7971 16.2634 12.8301 16.27C14.5501 15.95 15.9301 14.58 16.2501 12.85C16.3301 12.44 16.0601 12.05 15.6501 11.97C15.2401 11.9 14.8501 12.16 14.7701 12.57C14.5701 13.67 13.6501 14.59 12.5501 14.79C12.1401 14.86 11.8701 15.25 11.9501 15.66Z" fill="white"/>
</g>
</g>
</svg>
